<?xml version="1.0" encoding="UTF-8" standalone="no"?>
<svg width="120px" height="120px" viewBox="0 0 120 120" version="1.1" xmlns="http://www.w3.org/2000/svg" xmlns:xlink="http://www.w3.org/1999/xlink" xmlns:sketch="http://www.bohemiancoding.com/sketch/ns">
    <g id="Page-1" stroke="none" stroke-width="1" fill="none" fill-rule="evenodd" sketch:type="MSPage">
        <g id="noun_188723_cc" sketch:type="MSLayerGroup" transform="translate(1.000000, 14.000000)" fill="#FFFFFF">
            <path d="M117,7.54098361 L79.05,0.452459016 L78.9,0.452459016 L78.6,0.452459016 L78.3,0.452459016 L78.15,0.452459016 L40.65,7.39016393 L3.15,0.452459016 C2.25,0.301639344 1.35,0.452459016 0.75,1.0557377 C0.15,1.65901639 -0.3,2.41311475 -0.3,3.31803279 L-0.3,82.9508197 C-0.3,84.4590164 0.75,85.6655738 2.1,85.9672131 L40.05,93.0557377 L40.05,93.0557377 L40.65,93.0557377 L41.25,93.0557377 L41.25,93.0557377 L78.75,86.1180328 L116.25,93.0557377 L116.85,93.0557377 C117.6,93.0557377 118.2,92.7540984 118.8,92.3016393 C119.55,91.6983607 119.85,90.9442623 119.85,90.0393443 L119.85,10.4065574 C119.55,9.04918033 118.5,7.69180328 117,7.54098361 L117,7.54098361 Z M37.5,86.4196721 L5.55,80.5377049 L5.55,7.08852459 L37.5,12.9704918 L37.5,86.4196721 L37.5,86.4196721 Z M75.45,80.5377049 L43.5,86.4196721 L43.5,12.9704918 L75.45,7.08852459 L75.45,80.5377049 L75.45,80.5377049 Z M113.55,86.4196721 L81.6,80.5377049 L81.6,7.08852459 L113.55,12.9704918 L113.55,86.4196721 L113.55,86.4196721 Z" id="Shape" sketch:type="MSShapeGroup"></path>
            <path d="M59.55,50.6754098 C55.2,50.6754098 51.6,54.295082 51.6,58.6688525 C51.6,61.6852459 55.35,70.4327869 56.85,73.9016393 C57.3,74.957377 58.35,75.7114754 59.55,75.7114754 C60.75,75.7114754 61.8,74.957377 62.25,73.9016393 C63.75,70.4327869 67.5,61.8360656 67.5,58.6688525 C67.5,54.295082 63.9,50.6754098 59.55,50.6754098 L59.55,50.6754098 Z M59.55,65.0032787 C58.35,62.1377049 57.6,59.5737705 57.6,58.8196721 C57.6,57.7639344 58.5,56.8590164 59.55,56.8590164 C60.6,56.8590164 61.5,57.7639344 61.5,58.8196721 C61.5,59.5737705 60.6,61.9868852 59.55,65.0032787 L59.55,65.0032787 Z" id="Shape" sketch:type="MSShapeGroup"></path>
            <path d="M49.65,26.9967213 L50.25,26.9967213 L70.05,23.3770492 C71.7,23.0754098 72.75,21.5672131 72.45,19.9081967 C72,18.0983607 70.5,17.042623 68.85,17.3442623 L49.05,21.1147541 C47.4,21.4163934 46.35,22.9245902 46.65,24.5836066 C46.95,25.9409836 48.15,26.9967213 49.65,26.9967213 L49.65,26.9967213 Z" id="Shape" sketch:type="MSShapeGroup"></path>
            <path d="M49.65,36.9508197 L50.25,36.9508197 L69.9,33.1803279 C71.55,32.8786885 72.6,31.3704918 72.3,29.7114754 C72,28.052459 70.5,26.9967213 68.85,27.2983607 L49.05,30.9180328 C47.4,31.2196721 46.35,32.7278689 46.65,34.3868852 C46.95,35.895082 48.15,36.9508197 49.65,36.9508197 L49.65,36.9508197 Z" id="Shape" sketch:type="MSShapeGroup"></path>
            <path d="M49.65,46.6032787 L50.25,46.6032787 L70.05,42.9836066 C71.7,42.6819672 72.75,41.1737705 72.45,39.5147541 C72,37.704918 70.5,36.6491803 68.85,36.9508197 L49.05,40.5704918 C47.4,40.8721311 46.35,42.3803279 46.65,44.0393443 C46.95,45.547541 48.15,46.6032787 49.65,46.6032787 L49.65,46.6032787 Z" id="Shape" sketch:type="MSShapeGroup"></path>
            <path d="M21.3,43.2852459 C22.5,43.2852459 23.55,42.5311475 24,41.4754098 C25.65,37.8557377 29.25,29.2590164 29.25,26.242623 C29.25,21.8688525 25.65,18.2491803 21.3,18.2491803 C16.95,18.2491803 13.35,21.8688525 13.35,26.242623 C13.35,29.2590164 17.1,38.0065574 18.6,41.4754098 C19.05,42.6819672 20.1,43.2852459 21.3,43.2852459 L21.3,43.2852459 Z M21.3,24.2819672 C22.35,24.2819672 23.25,25.1868852 23.25,26.242623 C23.25,27.147541 22.35,29.5606557 21.3,32.4262295 C20.1,29.5606557 19.35,26.9967213 19.35,26.242623 C19.35,25.1868852 20.25,24.2819672 21.3,24.2819672 L21.3,24.2819672 Z" id="Shape" sketch:type="MSShapeGroup"></path>
            <path d="M10.95,54.4459016 L30.75,58.0655738 L31.35,58.0655738 C32.7,58.0655738 34.05,57.0098361 34.35,55.652459 C34.65,53.9934426 33.6,52.4852459 31.95,52.1836066 L12,48.5639344 C10.35,48.2622951 8.85,49.3180328 8.55,50.9770492 C8.25,52.6360656 9.3,54.1442623 10.95,54.4459016 L10.95,54.4459016 Z" id="Shape" sketch:type="MSShapeGroup"></path>
            <path d="M10.95,64.4 L20.85,66.2098361 L21.45,66.2098361 C22.8,66.2098361 24.15,65.1540984 24.45,63.7967213 C24.75,62.1377049 23.7,60.6295082 22.05,60.3278689 L12,58.5180328 C10.35,58.2163934 8.85,59.2721311 8.55,60.9311475 C8.25,62.4393443 9.3,64.0983607 10.95,64.4 L10.95,64.4 Z" id="Shape" sketch:type="MSShapeGroup"></path>
            <path d="M10.95,74.052459 L25.8,76.7672131 L26.4,76.7672131 C27.75,76.7672131 29.1,75.7114754 29.4,74.3540984 C29.7,72.695082 28.65,71.1868852 27,70.8852459 L12,68.0196721 C10.35,67.7180328 8.85,68.7737705 8.55,70.4327869 C8.25,72.0918033 9.3,73.7508197 10.95,74.052459 L10.95,74.052459 Z" id="Shape" sketch:type="MSShapeGroup"></path>
            <path d="M97.5,43.2852459 C98.7,43.2852459 99.75,42.5311475 100.2,41.4754098 C101.85,37.8557377 105.45,29.2590164 105.45,26.242623 C105.45,21.8688525 101.85,18.2491803 97.5,18.2491803 C93.15,18.2491803 89.55,21.8688525 89.55,26.242623 C89.55,29.2590164 93.3,38.0065574 94.8,41.4754098 C95.25,42.6819672 96.3,43.2852459 97.5,43.2852459 L97.5,43.2852459 Z M97.5,24.2819672 C98.55,24.2819672 99.45,25.1868852 99.45,26.242623 C99.45,27.147541 98.55,29.5606557 97.5,32.4262295 C96.3,29.5606557 95.55,26.9967213 95.55,26.242623 C95.55,25.1868852 96.45,24.2819672 97.5,24.2819672 L97.5,24.2819672 Z" id="Shape" sketch:type="MSShapeGroup"></path>
            <path d="M87,54.4459016 L102.45,57.3114754 L103.05,57.3114754 C104.4,57.3114754 105.75,56.2557377 106.05,54.8983607 C106.35,53.2393443 105.3,51.7311475 103.65,51.4295082 L88.2,48.5639344 C86.55,48.2622951 85.05,49.3180328 84.75,50.9770492 C84.3,52.6360656 85.5,54.1442623 87,54.4459016 L87,54.4459016 Z" id="Shape" sketch:type="MSShapeGroup"></path>
            <path d="M87,64.4 L107.4,68.1704918 L108,68.1704918 C109.35,68.1704918 110.7,67.1147541 111,65.757377 C111.3,64.0983607 110.25,62.5901639 108.6,62.2885246 L88.2,58.5180328 C86.55,58.2163934 85.05,59.2721311 84.75,60.9311475 C84.3,62.4393443 85.5,64.0983607 87,64.4 L87,64.4 Z" id="Shape" sketch:type="MSShapeGroup"></path>
            <path d="M87,74.052459 L95.7,75.7114754 L96.3,75.7114754 C97.65,75.7114754 99,74.6557377 99.3,73.2983607 C99.6,71.6393443 98.55,70.1311475 96.9,69.8295082 L88.2,68.1704918 C86.55,67.8688525 85.05,68.9245902 84.75,70.5836066 C84.3,72.0918033 85.5,73.7508197 87,74.052459 L87,74.052459 Z" id="Shape" sketch:type="MSShapeGroup"></path>
        </g>
    </g>
</svg>
