<?xml version="1.0" encoding="UTF-8" standalone="no"?>
<svg width="120px" height="120px" viewBox="0 0 120 120" version="1.1" xmlns="http://www.w3.org/2000/svg" xmlns:xlink="http://www.w3.org/1999/xlink" xmlns:sketch="http://www.bohemiancoding.com/sketch/ns">
    <title>367549</title>
    <description>Created with Sketch (http://www.bohemiancoding.com/sketch)</description>
    <defs></defs>
    <g id="Page-1" stroke="none" stroke-width="1" fill="none" fill-rule="evenodd" sketch:type="MSPage">
        <g id="Group" sketch:type="MSLayerGroup" transform="translate(0.000000, 9.500000)" fill="#FFFFFF">
            <path d="M116.162264,-0.1428 L4.00301887,-0.1428 C1.69358491,-0.1428 -0.176603774,1.73626667 -0.176603774,4.04826667 L-0.176603774,97.7681333 C-0.176603774,100.084667 1.69584906,101.961467 4.00301887,101.961467 L116.164528,101.961467 C118.480755,101.961467 120.353208,100.086933 120.353208,97.7681333 L120.353208,4.046 C120.350943,1.734 118.480755,-0.1428 116.162264,-0.1428 L116.162264,-0.1428 Z M103.612075,8.3572 C105.948679,8.3572 107.841509,10.2498667 107.841509,12.5936 C107.841509,14.9305333 105.948679,16.8232 103.612075,16.8232 C101.282264,16.8232 99.3849057,14.9328 99.3849057,12.5936 C99.3849057,10.2498667 101.282264,8.3572 103.612075,8.3572 L103.612075,8.3572 Z M88.5441509,8.3572 C90.8807547,8.3572 92.7735849,10.2498667 92.7735849,12.5936 C92.7735849,14.9305333 90.8807547,16.8232 88.5441509,16.8232 C86.2143396,16.8232 84.3215094,14.9328 84.3215094,12.5936 C84.3215094,10.2498667 86.2143396,8.3572 88.5441509,8.3572 L88.5441509,8.3572 Z M73.4784906,8.3572 C75.8128302,8.3572 77.7101887,10.2498667 77.7101887,12.5936 C77.7101887,14.9305333 75.8128302,16.8232 73.4784906,16.8232 C71.1418868,16.8232 69.2535849,14.9328 69.2535849,12.5936 C69.2513208,10.2498667 71.1396226,8.3572 73.4784906,8.3572 L73.4784906,8.3572 Z M111.980377,93.5793333 L8.19169811,93.5793333 L8.19169811,24.4392 L111.980377,24.4392 L111.980377,93.5793333 L111.980377,93.5793333 Z" id="Shape" sketch:type="MSShapeGroup"></path>
            <path d="M52.9743396,74.97 C53.2618868,75.0765333 53.5833962,75.0153333 53.8188679,74.8181333 L61.3992453,68.2130667 L68.234717,80.9018667 C68.3501887,81.1104 68.5449057,81.2622667 68.7713208,81.3257333 C68.8369811,81.3393333 68.9049057,81.3484 68.9750943,81.3484 C69.1403774,81.3484 69.3056604,81.3008 69.4369811,81.1965333 L76.2475472,76.6156 C76.4354717,76.4796 76.5735849,76.2801333 76.6120755,76.0534667 C76.6437736,75.8245333 76.5849057,75.5888 76.44,75.4074667 L67.9313208,64.3824 L76.9245283,60.7852 C77.2075472,60.6718667 77.4067925,60.418 77.4430189,60.1188 C77.4883019,59.8241333 77.3728302,59.5249333 77.1260377,59.3390667 L48.8422642,37.502 C48.5728302,37.2934667 48.2015094,37.2753333 47.9139623,37.4430667 C47.6150943,37.6108 47.4543396,37.9394667 47.5018868,38.2772 L52.4377358,74.3013333 C52.4784906,74.6005333 52.6845283,74.8589333 52.9743396,74.97 L52.9743396,74.97 Z" id="Shape" sketch:type="MSShapeGroup"></path>
        </g>
    </g>
</svg>
