<?xml version="1.0" encoding="UTF-8" standalone="no"?>
<svg width="120px" height="120px" viewBox="0 0 120 120" version="1.1" xmlns="http://www.w3.org/2000/svg" xmlns:xlink="http://www.w3.org/1999/xlink" xmlns:sketch="http://www.bohemiancoding.com/sketch/ns">
    <title>38239</title>
    <description>Created with Sketch (http://www.bohemiancoding.com/sketch)</description>
    <defs></defs>
    <g id="Page-1" stroke="none" stroke-width="1" fill="none" fill-rule="evenodd" sketch:type="MSPage">
        <path d="M113.927865,27.0873 L113.913438,26.9901 C113.890596,26.8557 113.864146,26.7225 113.826876,26.5905 C113.819663,26.5641 113.814854,26.5377 113.805236,26.5125 C113.763157,26.3649 113.709056,26.2173 113.645337,26.0745 C113.627303,26.0421 113.612876,26.0121 113.598449,25.9797 C113.565989,25.9089 113.531124,25.8381 113.495056,25.7685 C113.472213,25.7301 113.445764,25.6941 113.420517,25.6569 C113.397674,25.6173 113.373629,25.5789 113.348382,25.5393 C113.27264,25.4217 113.188483,25.3077 113.101921,25.2009 C113.092303,25.1901 113.082685,25.1781 113.076674,25.1673 C112.973281,25.0437 112.859067,24.9333 112.744854,24.8253 C112.719607,24.8037 112.697966,24.7845 112.670315,24.7641 C112.566921,24.6741 112.459921,24.5901 112.349315,24.5145 C112.32527,24.4977 112.302427,24.4809 112.278382,24.4653 C112.147337,24.3777 112.007876,24.2997 111.864809,24.2313 C111.855191,24.2265 111.847978,24.2193 111.837157,24.2145 L62.1025955,0.3681 C61.0782809,-0.1227 59.8868539,-0.1227 58.8637416,0.3681 L9.12076404,24.2133 C7.82474157,24.8349 7,26.1429 7,27.5781 L7,88.9173 C7,90.2745 7.73697753,91.5237 8.926,92.1825 L58.6689775,119.7129 C58.6701798,119.7141 58.6725843,119.7153 58.6737865,119.7153 C58.8048315,119.7897 58.9418876,119.8521 59.0825506,119.9097 C59.1065955,119.9193 59.1294382,119.9277 59.1534831,119.9349 C59.2652921,119.9769 59.3807079,120.0141 59.4985281,120.0477 C59.5357978,120.0573 59.5730674,120.0681 59.6103371,120.0753 C59.7173371,120.1017 59.8267416,120.1209 59.9373483,120.1389 C59.9734157,120.1449 60.0106854,120.1521 60.0479551,120.1569 C60.1910225,120.1749 60.3352921,120.1833 60.4831685,120.1833 C60.6298427,120.1833 60.7753146,120.1713 60.9171798,120.1569 C60.9544494,120.1521 60.9917191,120.1449 61.0277865,120.1389 C61.1383933,120.1209 61.2477978,120.1041 61.3535955,120.0753 C61.3908652,120.0657 61.4305393,120.0549 61.4690112,120.0477 C61.5856292,120.0165 61.6986404,119.9769 61.8116517,119.9349 C61.8368989,119.9277 61.8585393,119.9181 61.8837865,119.9097 C62.0208427,119.8521 62.1591011,119.7885 62.2925506,119.7153 C62.2949551,119.7153 62.2973596,119.7141 62.2973596,119.7129 L112.040337,92.1825 C113.228157,91.5237 113.967539,90.2745 113.967539,88.9173 L113.967539,27.5781 L113.967539,27.5697 C113.96273,27.4089 113.949506,27.2481 113.927865,27.0873 L113.927865,27.0873 Z M106.489562,86.7165 L64.2221573,110.1141 L64.2221573,96.9585 C64.2221573,94.8969 62.5462247,93.2277 60.4819663,93.2277 C58.4177079,93.2277 56.7429775,94.8993 56.7429775,96.9585 L56.7429775,110.1141 L14.4779775,86.7189 L14.4779775,33.6345 C18.9166742,34.4133 22.8949101,36.5481 25.9570337,39.6057 L33.5047416,47.9277 C32.247191,49.5213 30.637382,51.7557 30.1889438,53.4381 C29.1646292,57.2721 29.7970112,61.1565 31.6412584,64.3413 L56.5566292,49.9293 C54.707573,46.7493 51.6454494,44.2701 47.8018652,43.2489 C45.5728989,42.6573 42.1633258,43.0341 40.0233258,43.4745 L39.4522584,43.8393 L31.0293146,34.5405 C27.8397528,31.3581 23.9035955,28.9221 19.5117865,27.5121 L60.4819663,7.8717 L102.084528,27.8157 L74.9774607,42.8205 C73.1716854,43.8201 72.5188652,46.0917 73.5215393,47.8953 C74.2044157,49.1241 75.48,49.8189 76.7952584,49.8189 C77.4072022,49.8189 78.0299663,49.6677 78.6034382,49.3485 L106.487157,33.9165 L106.487157,56.1801 L106.261135,56.1801 C106.261135,68.4225 96.2848876,78.3801 84.0195618,78.3801 C79.6554045,78.3801 75.5978202,77.1033 72.1642022,74.9277 C72.6330787,73.6989 72.8987753,72.3705 72.8987753,70.9785 C72.8987753,67.9125 71.6544494,65.1381 69.6442921,63.1293 L66.7961685,65.9697 L61.2730449,60.4593 L61.2694382,60.4629 C60.5480899,59.7417 59.3771011,59.7417 58.6545506,60.4641 C57.932,61.1865 57.932,62.3553 58.6545506,63.0753 L64.1740674,68.5857 L59.3807079,73.3689 L53.6964831,67.6953 L53.6928764,67.6989 C52.9691236,66.9765 51.7981348,66.9765 51.0767865,67.6989 C50.354236,68.4213 50.354236,69.5901 51.0767865,70.3113 L56.7622135,75.9861 L53.9140899,78.8265 C55.9290562,80.8353 58.7074494,82.0773 61.779191,82.0773 C63.7917528,82.0773 65.6720674,81.5361 67.3023146,80.6037 C72.0668202,83.8617 77.8219775,85.7781 84.020764,85.7781 C92.9979438,85.7781 101.046989,81.7725 106.489562,75.4629 L106.489562,86.7165 L106.489562,86.7165 Z" id="Shape" fill="#FFFFFF" sketch:type="MSShapeGroup"></path>
    </g>
</svg>