<svg width="120" height="120" viewBox="0 0 120 120" xmlns="http://www.w3.org/2000/svg"><g fill="#FFF" fill-rule="evenodd"><path d="M118 21.54l-37.95-7.088h-.9l-37.5 6.938-37.5-6.938c-.9-.15-1.8 0-2.4.604-.6.603-1.05 1.357-1.05 2.262V96.95c0 1.51 1.05 2.716 2.4 3.017l37.95 7.09h1.2l37.5-6.94 37.5 6.94h.6c.75 0 1.35-.303 1.95-.755.75-.604 1.05-1.358 1.05-2.263V24.4c-.3-1.358-1.35-2.715-2.85-2.866zm-79.5 78.88L6.55 94.538v-73.45L38.5 26.97v73.45zm37.95-5.882L44.5 100.42V26.97l31.95-5.88v73.448zm38.1 5.882L82.6 94.538v-73.45l31.95 5.882v73.45z"/><path d="M60.55 64.675c-4.35 0-7.95 3.62-7.95 7.994 0 3.01 3.75 11.76 5.25 15.23.45 1.05 1.5 1.81 2.7 1.81 1.2 0 2.25-.76 2.7-1.81 1.5-3.47 5.25-12.07 5.25-15.24 0-4.378-3.6-7.998-7.95-7.998zm0 14.328c-1.2-2.865-1.95-5.43-1.95-6.183 0-1.056.9-1.96 1.95-1.96 1.05 0 1.95.904 1.95 1.96 0 .754-.9 3.167-1.95 6.183zm-9.9-38.006h.6l19.8-3.62c1.65-.302 2.7-1.81 2.4-3.47-.45-1.81-1.95-2.864-3.6-2.563l-19.8 3.77c-1.65.302-2.7 1.81-2.4 3.47.3 1.357 1.5 2.413 3 2.413zm0 9.953h.6l19.65-3.77c1.65-.3 2.7-1.81 2.4-3.47-.3-1.658-1.8-2.713-3.45-2.412l-19.8 3.62c-1.65.302-2.7 1.81-2.4 3.47.3 1.507 1.5 2.563 3 2.563zm0 9.653h.6l19.8-3.62c1.65-.3 2.7-1.81 2.4-3.468-.45-1.81-1.95-2.866-3.6-2.564l-19.8 3.62c-1.65.31-2.7 1.81-2.4 3.47.3 1.51 1.5 2.57 3 2.57zM22.3 57.285c1.2 0 2.25-.754 2.7-1.81 1.65-3.62 5.25-12.216 5.25-15.232 0-4.374-3.6-7.994-7.95-7.994s-7.95 3.62-7.95 7.99c0 3.01 3.75 11.76 5.25 15.23.45 1.2 1.5 1.81 2.7 1.81zm0-19.003c1.05 0 1.95.905 1.95 1.96 0 .906-.9 3.32-1.95 6.184-1.2-2.865-1.95-5.43-1.95-6.183 0-1.056.9-1.96 1.95-1.96zM11.95 68.446l19.8 3.62h.6c1.35 0 2.7-1.056 3-2.414.3-1.66-.75-3.167-2.4-3.468L13 62.564c-1.65-.302-3.15.754-3.45 2.413-.3 1.66.75 3.167 2.4 3.47zm0 9.954l9.9 1.81h.6c1.35 0 2.7-1.056 3-2.413.3-1.66-.75-3.167-2.4-3.47L13 72.517c-1.65-.3-3.15.756-3.45 2.415-.3 1.51.75 3.168 2.4 3.47zm0 9.652l14.85 2.715h.6c1.35 0 2.7-1.056 3-2.413.3-1.66-.75-3.167-2.4-3.47L13 82.02c-1.65-.302-3.15.754-3.45 2.413-.3 1.66.75 3.318 2.4 3.62zM98.5 57.285c1.2 0 2.25-.754 2.7-1.81 1.65-3.62 5.25-12.216 5.25-15.232 0-4.374-3.6-7.994-7.95-7.994s-7.95 3.62-7.95 7.99c0 3.01 3.75 11.76 5.25 15.23.45 1.2 1.5 1.81 2.7 1.81zm0-19.003c1.05 0 1.95.905 1.95 1.96 0 .906-.9 3.32-1.95 6.184-1.2-2.865-1.95-5.43-1.95-6.183 0-1.056.9-1.96 1.95-1.96zM88 68.446l15.45 2.865h.6c1.35 0 2.7-1.05 3-2.41.3-1.66-.75-3.16-2.4-3.47L89.2 62.57c-1.65-.302-3.15.754-3.45 2.413-.45 1.66.75 3.167 2.25 3.47zm0 9.954l20.4 3.77h.6c1.35 0 2.7-1.055 3-2.413.3-1.66-.75-3.167-2.4-3.468l-20.4-3.78c-1.65-.307-3.15.75-3.45 2.41-.45 1.51.75 3.165 2.25 3.47zm0 9.652l8.7 1.66h.6c1.35 0 2.7-1.056 3-2.414.3-1.66-.75-3.167-2.4-3.468l-8.7-1.66c-1.65-.3-3.15.755-3.45 2.414-.45 1.508.75 3.167 2.25 3.468z"/></g></svg>
