<svg width="120" height="120" viewBox="0 0 120 120" xmlns="http://www.w3.org/2000/svg"><g fill="#FFF" fill-rule="evenodd"><path d="M116.162 9.357H4.002c-2.308 0-4.18 1.88-4.18 4.19v93.72c0 2.318 1.874 4.194 4.18 4.194h112.163c2.316 0 4.188-1.87 4.188-4.19V13.55c-.002-2.312-1.872-4.19-4.19-4.19zm-12.55 8.5c2.337 0 4.23 1.893 4.23 4.237 0 2.337-1.893 4.23-4.23 4.23-2.33 0-4.227-1.89-4.227-4.23 0-2.344 1.897-4.237 4.227-4.237zm-15.068 0c2.337 0 4.23 1.893 4.23 4.237 0 2.337-1.893 4.23-4.23 4.23-2.33 0-4.222-1.89-4.222-4.23 0-2.344 1.892-4.237 4.222-4.237zm-15.066 0c2.335 0 4.232 1.893 4.232 4.237 0 2.337-1.897 4.23-4.232 4.23-2.336 0-4.224-1.89-4.224-4.23-.003-2.344 1.886-4.237 4.224-4.237zm38.502 85.222H8.192V33.94H111.98v69.14z"/><path d="M52.974 84.47c.288.107.61.045.845-.152l7.58-6.605 6.83 12.69c.114.207.31.36.535.423.066.013.134.022.204.022.165 0 .33-.047.462-.15l6.81-4.582c.188-.136.327-.336.365-.563.032-.228-.027-.464-.17-.646l-8.51-11.025 8.993-3.597c.285-.113.484-.367.52-.666.046-.3-.07-.6-.316-.78L48.844 47c-.27-.21-.64-.227-.93-.06-.3.17-.46.497-.41.835L52.436 83.8c.04.3.247.56.536.67z"/></g></svg>
