<svg width="120" height="120" viewBox="0 0 120 120" xmlns="http://www.w3.org/2000/svg"><path d="M113.928 27.087l-.015-.097c-.022-.134-.05-.267-.086-.4-.007-.026-.012-.052-.022-.078-.042-.147-.096-.295-.16-.438-.018-.032-.032-.062-.047-.094-.032-.07-.067-.142-.103-.212-.023-.038-.05-.074-.074-.11-.02-.04-.04-.08-.07-.12-.07-.116-.16-.23-.24-.337-.01-.01-.02-.02-.02-.03-.1-.12-.22-.23-.33-.34-.022-.02-.044-.04-.072-.06-.102-.09-.21-.17-.32-.25l-.07-.05c-.13-.08-.27-.16-.414-.23-.01 0-.017-.01-.03-.01L62.106.37c-1.026-.49-2.217-.49-3.24 0L9.126 24.212C7.82 24.835 7 26.142 7 27.578v61.34c0 1.356.737 2.606 1.926 3.264l49.743 27.53v.003c.13.075.27.137.41.195.02.01.04.018.07.025.11.042.22.08.34.113.03.01.07.02.11.027.1.027.21.046.32.064l.11.01c.143.02.29.02.435.02.147 0 .292-.01.434-.03.04-.005.077-.01.11-.018.11-.02.22-.037.33-.066.036-.01.076-.02.114-.027.115-.03.23-.07.34-.11.024-.007.046-.017.07-.025.138-.06.276-.12.41-.197h.004l49.74-27.53c1.187-.66 1.927-1.91 1.927-3.267V27.57c-.004-.16-.017-.322-.04-.483zm-7.438 59.63l-42.268 23.397V96.958c0-2.06-1.676-3.73-3.74-3.73s-3.74 1.67-3.74 3.73v13.156L14.48 86.72V33.634c4.44.778 8.417 2.913 11.48 5.97l7.547 8.323c-1.258 1.593-2.868 3.828-3.316 5.51-1.02 3.834-.39 7.718 1.45 10.903l24.92-14.41c-1.85-3.18-4.91-5.66-8.75-6.68-2.23-.593-5.64-.216-7.78.224l-.57.365-8.42-9.3c-3.19-3.19-7.12-5.62-11.52-7.03L60.49 7.87l41.602 19.94-27.11 15.006c-1.805 1-2.46 3.27-1.455 5.074.682 1.23 1.958 1.925 3.273 1.925.612 0 1.235-.154 1.808-.47L106.49 33.91v22.27h-.227c0 12.242-9.973 22.2-22.24 22.2-4.363 0-8.42-1.277-11.854-3.452.47-1.23.73-2.557.73-3.95 0-3.066-1.25-5.84-3.26-7.85L66.8 65.97l-5.523-5.51-.004.003c-.723-.72-1.894-.72-2.616 0-.723.724-.723 1.892 0 2.612l5.52 5.51-4.794 4.784-5.683-5.68h-.004c-.724-.73-1.895-.73-2.616 0-.723.72-.723 1.89 0 2.61l5.685 5.67-2.848 2.84c2.015 2.01 4.793 3.25 7.865 3.25 2.01 0 3.89-.54 5.52-1.476 4.765 3.26 10.52 5.175 16.72 5.175 8.976 0 17.025-4.007 22.47-10.316v11.26z" fill="#FFF" fill-rule="evenodd"/></svg>
