<svg xmlns="http://www.w3.org/2000/svg" xmlns:xlink="http://www.w3.org/1999/xlink" version="1.1" x="0px" y="0px" viewBox="0 0 100 125" enable-background="new 0 0 100 100" xml:space="preserve"><path fill="#ffffff" d="M89,24l-25.3-4.7c0,0-0.1,0-0.1,0c-0.1,0-0.1,0-0.2,0c-0.1,0-0.2,0-0.2,0c0,0-0.1,0-0.1,0  l-25,4.6l-25-4.6c-0.6-0.1-1.2,0-1.6,0.4s-0.7,0.9-0.7,1.5v52.8c0,1,0.7,1.8,1.6,2l25.3,4.7c0,0,0,0,0,0c0.1,0,0.2,0,0.4,0  s0.2,0,0.4,0c0,0,0,0,0,0l25-4.6l25,4.6c0.1,0,0.2,0,0.4,0c0.5,0,0.9-0.2,1.3-0.5c0.5-0.4,0.7-0.9,0.7-1.5V25.9  C90.7,25,90,24.1,89,24z M36,76.3l-21.3-3.9V23.7L36,27.6V76.3z M61.3,72.4L40,76.3V27.6l21.3-3.9V72.4z M86.7,76.3l-21.3-3.9V23.7  l21.3,3.9V76.3z"/><path fill="#ffffff" d="M50.7,52.6c-2.9,0-5.3,2.4-5.3,5.3c0,2,2.5,7.8,3.5,10.1c0.3,0.7,1,1.2,1.8,1.2  s1.5-0.5,1.8-1.2C53.5,65.7,56,60,56,57.9C56,55,53.6,52.6,50.7,52.6z M50.7,62.1c-0.8-1.9-1.3-3.6-1.3-4.1c0-0.7,0.6-1.3,1.3-1.3  c0.7,0,1.3,0.6,1.3,1.3C52,58.5,51.4,60.1,50.7,62.1z"/><path fill="#ffffff" d="M44.1,36.9c0.1,0,0.2,0,0.4,0l13.2-2.4c1.1-0.2,1.8-1.2,1.6-2.3C59,31,58,30.3,56.9,30.5  L43.7,33c-1.1,0.2-1.8,1.2-1.6,2.3C42.3,36.2,43.1,36.9,44.1,36.9z"/><path fill="#ffffff" d="M44.1,43.5c0.1,0,0.2,0,0.4,0L57.6,41c1.1-0.2,1.8-1.2,1.6-2.3c-0.2-1.1-1.2-1.8-2.3-1.6  l-13.2,2.4c-1.1,0.2-1.8,1.2-1.6,2.3C42.3,42.8,43.1,43.5,44.1,43.5z"/><path fill="#ffffff" d="M44.1,49.9c0.1,0,0.2,0,0.4,0l13.2-2.4c1.1-0.2,1.8-1.2,1.6-2.3C59,44,58,43.3,56.9,43.5  l-13.2,2.4c-1.1,0.2-1.8,1.2-1.6,2.3C42.3,49.2,43.1,49.9,44.1,49.9z"/><path fill="#ffffff" d="M25.2,47.7c0.8,0,1.5-0.5,1.8-1.2c1.1-2.4,3.5-8.1,3.5-10.1c0-2.9-2.4-5.3-5.3-5.3  s-5.3,2.4-5.3,5.3c0,2,2.5,7.8,3.5,10.1C23.7,47.3,24.4,47.7,25.2,47.7z M25.2,35.1c0.7,0,1.3,0.6,1.3,1.3c0,0.6-0.6,2.2-1.3,4.1  c-0.8-1.9-1.3-3.6-1.3-4.1C23.9,35.7,24.5,35.1,25.2,35.1z"/><path fill="#ffffff" d="M18.3,55.1l13.2,2.4c0.1,0,0.2,0,0.4,0c0.9,0,1.8-0.7,2-1.6c0.2-1.1-0.5-2.1-1.6-2.3  L19,51.2c-1.1-0.2-2.1,0.5-2.3,1.6C16.5,53.9,17.2,54.9,18.3,55.1z"/><path fill="#ffffff" d="M18.3,61.7l6.6,1.2c0.1,0,0.2,0,0.4,0c0.9,0,1.8-0.7,2-1.6c0.2-1.1-0.5-2.1-1.6-2.3L19,57.8  c-1.1-0.2-2.1,0.5-2.3,1.6C16.5,60.4,17.2,61.5,18.3,61.7z"/><path fill="#ffffff" d="M18.3,68.1l9.9,1.8c0.1,0,0.2,0,0.4,0c0.9,0,1.8-0.7,2-1.6c0.2-1.1-0.5-2.1-1.6-2.3L19,64.1  c-1.1-0.2-2.1,0.5-2.3,1.6C16.5,66.8,17.2,67.9,18.3,68.1z"/><path fill="#ffffff" d="M76,47.7c0.8,0,1.5-0.5,1.8-1.2c1.1-2.4,3.5-8.1,3.5-10.1c0-2.9-2.4-5.3-5.3-5.3  s-5.3,2.4-5.3,5.3c0,2,2.5,7.8,3.5,10.1C74.5,47.3,75.2,47.7,76,47.7z M76,35.1c0.7,0,1.3,0.6,1.3,1.3c0,0.6-0.6,2.2-1.3,4.1  c-0.8-1.9-1.3-3.6-1.3-4.1C74.7,35.7,75.3,35.1,76,35.1z"/><path fill="#ffffff" d="M69,55.1L79.3,57c0.1,0,0.2,0,0.4,0c0.9,0,1.8-0.7,2-1.6c0.2-1.1-0.5-2.1-1.6-2.3l-10.3-1.9  c-1.1-0.2-2.1,0.5-2.3,1.6C67.2,53.9,68,54.9,69,55.1z"/><path fill="#ffffff" d="M69,61.7l13.6,2.5c0.1,0,0.2,0,0.4,0c0.9,0,1.8-0.7,2-1.6c0.2-1.1-0.5-2.1-1.6-2.3  l-13.6-2.5c-1.1-0.2-2.1,0.5-2.3,1.6C67.2,60.4,68,61.5,69,61.7z"/><path fill="#ffffff" d="M69,68.1l5.8,1.1c0.1,0,0.2,0,0.4,0c0.9,0,1.8-0.7,2-1.6c0.2-1.1-0.5-2.1-1.6-2.3l-5.8-1.1  c-1.1-0.2-2.1,0.5-2.3,1.6C67.2,66.8,68,67.9,69,68.1z"/></svg>
